<svg width="30" height="37" fill="none" xmlns="http://www.w3.org/2000/svg"><path d="M3.846 12L2.34 10.484a2.12 2.12 0 010-2.984 2.093 2.093 0 012.968 0l1.608 1.617a14.654 14.654 0 015.593-2.378V4.642H11.11a.701.701 0 01-.7-.703V2.11c0-1.164.942-2.11 2.1-2.11h5.596c1.158 0 2.1.946 2.1 2.11v1.829a.701.701 0 01-.7.703h-1.4V6.74A14.652 14.652 0 0123.7 9.118L25.309 7.5a2.093 2.093 0 012.968 0 2.12 2.12 0 010 2.984l-1.507 1.514A14.804 14.804 0 0130 21.241c0 8.144-6.591 14.77-14.692 14.77-8.101 0-14.692-6.626-14.692-14.77a14.8 14.8 0 013.23-9.242zm.473-3.504a.698.698 0 00-.99 0 .707.707 0 000 .994l1.446 1.453a14.89 14.89 0 011.023-.96l-1.48-1.487zM18.806 2.11a.702.702 0 00-.7-.703H12.51c-.386 0-.7.315-.7.703v1.125h6.997V2.11zm-4.898 2.532v1.895a14.972 14.972 0 012.799 0V4.642h-2.799zm13.378 3.854a.698.698 0 00-.99 0l-1.478 1.487c.355.303.697.624 1.022.96l1.446-1.453a.707.707 0 000-.994zM15.308 34.604c7.33 0 13.293-5.994 13.293-13.363a13.389 13.389 0 00-5.252-10.643 13.245 13.245 0 00-6.046-2.572 13.444 13.444 0 00-3.99 0 13.246 13.246 0 00-6.047 2.572A13.388 13.388 0 002.014 21.24c0 7.37 5.964 13.364 13.294 13.364z" fill="#00B2FF"/><path d="M15.307 23.35a2.113 2.113 0 01-.7-4.1v-5.043c0-.388.314-.703.7-.703.387 0 .7.315.7.703v5.045a2.113 2.113 0 01-.7 4.099zm0-2.813a.703.703 0 000 1.407.702.702 0 000-1.407z" fill="#00B2FF"/><path d="M7.855 13.82l.034-.037a10.52 10.52 0 014.45-2.662.704.704 0 01.396 1.349 9.102 9.102 0 00-3.34 1.831l.471.474a.707.707 0 010 .995.695.695 0 01-.99 0l-.472-.475a9.083 9.083 0 00-2.165 5.242h.673c.387 0 .7.316.7.704a.701.701 0 01-.7.703H6.24a9.083 9.083 0 002.165 5.243l.473-.476a.698.698 0 01.99 0 .706.706 0 010 .995l-.474.476a8.988 8.988 0 005.215 2.176v-.677c0-.389.313-.704.7-.704.386 0 .7.315.7.704v.676a8.986 8.986 0 005.214-2.175l-.473-.476a.706.706 0 010-.995.698.698 0 01.99 0l.473.476a9.083 9.083 0 002.164-5.243h-.673a.701.701 0 01-.7-.703c0-.389.314-.704.7-.704h.673a9.083 9.083 0 00-2.164-5.242l-.473.475a.695.695 0 01-.99 0 .707.707 0 010-.995l.472-.474a9.099 9.099 0 00-3.341-1.832.704.704 0 01.396-1.349 10.517 10.517 0 014.409 2.624.698.698 0 01.042.038c.012.012.022.025.033.038a10.506 10.506 0 013.042 7.42c0 2.798-1.08 5.43-3.041 7.421l-.034.038-.038.034a10.394 10.394 0 01-7.381 3.058 10.394 10.394 0 01-7.381-3.058.402.402 0 01-.038-.034l-.034-.037a10.506 10.506 0 01-3.042-7.421c0-2.797 1.08-5.43 3.042-7.42z" fill="#00B2FF"/><path d="M15.308 12.097a.702.702 0 01-.7-.703c0-.388.313-.703.7-.703.386 0 .7.315.7.703a.702.702 0 01-.7.703z" fill="#00B2FF"/></svg>